<svg xmlns="http://www.w3.org/2000/svg" viewBox="0 0 1189.16 1645.17"><defs><style>.cls-1,.cls-3{fill:none;stroke:#000}.cls-1{stroke-miterlimit:10;stroke-width:11.16px}.cls-4{fill-rule:evenodd}.cls-3{stroke-linecap:round;stroke-linejoin:round;stroke-width:23px}.cls-4{fill:#050007}</style></defs><g id="Layer_2" data-name="Layer 2"><g id="Layer_1-2" data-name="Layer 1"><path class="cls-1" d="M756.7 978.34c149.48-63.23 254.37-211.24 254.37-383.76 0-230-186.47-416.49-416.49-416.49S178.09 364.56 178.09 594.58c0 171.34 103.46 318.51 251.32 382.45"/><path class="cls-1" d="M853 1124c195.76-95.73 330.58-296.84 330.58-529.44 0-325.3-263.7-589-589-589s-589 263.7-589 589c0 232.6 134.82 433.7 330.58 529.43"/><path class="cls-1" d="M663.15 824.79c99.21-29.51 171.56-121.41 171.56-230.2 0-132.62-107.51-240.14-240.14-240.14S354.44 462 354.44 594.58c0 108.8 72.35 200.69 171.56 230.2"/><path fill-rule="evenodd" fill="#1d1d1b" d="M606.27 614.82v81.26h-23.38v-81.26l-70.37 40.63-11.68-20.24 70.37-40.63-70.37-40.63 11.68-20.24 70.37 40.63v-81.26h23.38v81.26l70.37-40.63 11.68 20.24-70.37 40.63 70.37 40.63-11.68 20.24-70.37-40.63z"/><path class="cls-3" d="M594.58 716.71l-416.49 656.45 251.39-68.01"/><path class="cls-3" d="M594.58 643.57v729.59l-330.2-136.01M595.14 1373.16l330.2-136.01"/><path class="cls-3" d="M759.68 1305.15l251.39 68.01-416.49-656.45M264.38 1237.15h660.96M336.16 1124.02l258.42 113.13M853 1124.02l-258.42 113.13M429.42 977.04l165.16 67.89M756.7 978.34l-162.12 66.59M336.16 1124.02l258.42-79.09M853 1124.02l-258.42-79.09M526.01 824.79l68.57 28.16M663.15 824.79l-68.57 28.16M429.42 977.04l165.16-124.09M756.7 978.34L594.58 852.95"/><path class="cls-4" d="M479.33 1484.46v63.17h-23.82v-85.56h82.33v22.39h-58.51zM353.4 1484.46v63.17h-23.81v-85.56h82.33v22.39H353.4z"/><path fill="#050007" d="M582.62 1462.07h23.82v85.56h-23.82z"/><path class="cls-4" d="M978.64 1462.07v63.17h57.24v22.39h-81.05v-85.56h23.81zM675.04 1462.07l35.68 61.81 35.69-61.81h27.5l-49.4 85.56h-27.57l-49.4-85.56h27.5zM817.44 1547.63l35.68-61.81 35.69 61.81h27.5l-49.4-85.56h-27.58l-49.39 85.56h27.5zM192.64 1547.63l35.69-61.81 35.68 61.81h27.5l-49.39-85.56h-27.58l-49.4 85.56h27.5z"/><g style="isolation:isolate"><path d="M376.7 1593h18.43c9.73 0 15.48 5.31 15.48 14.15 0 7.15-3.76 11.87-10.25 13.49l14.89 24H406l-14.45-23.29h-6.86v23.29h-8zm18.57 20.79c4.43 0 7.16-2 7.16-6.64s-2.73-6.63-7.16-6.63h-10.54v13.27zM489.49 1593h8.32l17.25 51.6h-8.25l-4.13-12.9h-18.06l-4.13 12.9h-8.33zm10.76 31.18l-6.64-20.57-6.61 20.55zM574.85 1593h13.79c13.19 0 23.88 8 23.88 25.8s-10.69 25.8-23.88 25.8h-13.79zm13 44.08c8.55 0 16.29-4.2 16.29-18.28s-7.74-18.28-16.29-18.28h-5v36.56zM677.1 1637.36h11.72v-37.16H677.1v-7.2h31.4v7.22h-11.65v37.16h11.65v7.22h-31.4zM772.34 1618.78c0-17.69 8.84-26.39 20-26.39s20.05 8.7 20.05 26.39-8.85 26.39-20.05 26.39-20-8.7-20-26.39zm32 0c0-13.79-5.31-18.87-11.94-18.87s-11.87 5.08-11.87 18.87 5.23 18.87 11.87 18.87 11.93-5.09 11.93-18.87z"/></g></g></g></svg>